<mxfile host="Electron" modified="2024-03-27T15:45:36.289Z" agent="Mozilla/5.0 (Windows NT 10.0; Win64; x64) AppleWebKit/537.36 (KHTML, like Gecko) draw.io/24.0.4 Chrome/120.0.6099.109 Electron/28.1.0 Safari/537.36" etag="jIPexm2uZxMVZXDgs1ue" version="24.0.4" type="device">
  <diagram name="Страница — 1" id="f5qaqixOcX6vG_OhwR0j">
    <mxGraphModel dx="107" dy="487" grid="1" gridSize="10" guides="1" tooltips="1" connect="1" arrows="1" fold="1" page="1" pageScale="1" pageWidth="649" pageHeight="1011" math="0" shadow="0">
      <root>
        <mxCell id="0" />
        <mxCell id="1" parent="0" />
        <mxCell id="1ShHeoFMNw8JJS8lKLfo-9" style="edgeStyle=orthogonalEdgeStyle;rounded=0;orthogonalLoop=1;jettySize=auto;html=1;exitX=0.5;exitY=0.5;exitDx=0;exitDy=20;exitPerimeter=0;entryX=0.5;entryY=0;entryDx=0;entryDy=0;endArrow=none;endFill=0;fontFamily=Times New Roman;" edge="1" parent="1" source="1ShHeoFMNw8JJS8lKLfo-1" target="1ShHeoFMNw8JJS8lKLfo-2">
          <mxGeometry relative="1" as="geometry" />
        </mxCell>
        <mxCell id="1ShHeoFMNw8JJS8lKLfo-1" value="Начало" style="html=1;dashed=0;whiteSpace=wrap;shape=mxgraph.dfd.start;fontFamily=Times New Roman;" vertex="1" parent="1">
          <mxGeometry x="680" y="40" width="120" height="40" as="geometry" />
        </mxCell>
        <mxCell id="1ShHeoFMNw8JJS8lKLfo-10" value="Нет" style="edgeStyle=orthogonalEdgeStyle;rounded=0;orthogonalLoop=1;jettySize=auto;html=1;exitX=0.5;exitY=1;exitDx=0;exitDy=0;entryX=0.5;entryY=0;entryDx=0;entryDy=0;endArrow=none;endFill=0;fontFamily=Times New Roman;" edge="1" parent="1" source="1ShHeoFMNw8JJS8lKLfo-2" target="1ShHeoFMNw8JJS8lKLfo-4">
          <mxGeometry relative="1" as="geometry" />
        </mxCell>
        <mxCell id="1ShHeoFMNw8JJS8lKLfo-11" value="Да" style="edgeStyle=orthogonalEdgeStyle;rounded=0;orthogonalLoop=1;jettySize=auto;html=1;exitX=1;exitY=0.5;exitDx=0;exitDy=0;entryX=0;entryY=0.5;entryDx=0;entryDy=0;endArrow=none;endFill=0;fontFamily=Times New Roman;" edge="1" parent="1" source="1ShHeoFMNw8JJS8lKLfo-2" target="1ShHeoFMNw8JJS8lKLfo-3">
          <mxGeometry relative="1" as="geometry" />
        </mxCell>
        <mxCell id="1ShHeoFMNw8JJS8lKLfo-2" value="Файл открыт" style="rhombus;whiteSpace=wrap;html=1;fontFamily=Times New Roman;" vertex="1" parent="1">
          <mxGeometry x="680" y="120" width="120" height="80" as="geometry" />
        </mxCell>
        <mxCell id="1ShHeoFMNw8JJS8lKLfo-3" value="write_to_file(имя файла)" style="shape=process;whiteSpace=wrap;html=1;backgroundOutline=1;fontFamily=Times New Roman;" vertex="1" parent="1">
          <mxGeometry x="840" y="120" width="120" height="80" as="geometry" />
        </mxCell>
        <mxCell id="1ShHeoFMNw8JJS8lKLfo-12" value="Да" style="edgeStyle=orthogonalEdgeStyle;rounded=0;orthogonalLoop=1;jettySize=auto;html=1;exitX=0.5;exitY=1;exitDx=0;exitDy=0;entryX=0.5;entryY=0;entryDx=0;entryDy=0;endArrow=none;endFill=0;fontFamily=Times New Roman;" edge="1" parent="1" source="1ShHeoFMNw8JJS8lKLfo-4" target="1ShHeoFMNw8JJS8lKLfo-5">
          <mxGeometry relative="1" as="geometry" />
        </mxCell>
        <mxCell id="1ShHeoFMNw8JJS8lKLfo-4" value="Файл выбран" style="rhombus;whiteSpace=wrap;html=1;fontFamily=Times New Roman;" vertex="1" parent="1">
          <mxGeometry x="680" y="240" width="120" height="80" as="geometry" />
        </mxCell>
        <mxCell id="1ShHeoFMNw8JJS8lKLfo-13" style="edgeStyle=orthogonalEdgeStyle;rounded=0;orthogonalLoop=1;jettySize=auto;html=1;exitX=0.5;exitY=1;exitDx=0;exitDy=0;endArrow=none;endFill=0;fontFamily=Times New Roman;" edge="1" parent="1" source="1ShHeoFMNw8JJS8lKLfo-5" target="1ShHeoFMNw8JJS8lKLfo-6">
          <mxGeometry relative="1" as="geometry" />
        </mxCell>
        <mxCell id="1ShHeoFMNw8JJS8lKLfo-5" value="write_to_file(имя выбранного файла)" style="shape=process;whiteSpace=wrap;html=1;backgroundOutline=1;fontFamily=Times New Roman;" vertex="1" parent="1">
          <mxGeometry x="680" y="360" width="120" height="80" as="geometry" />
        </mxCell>
        <mxCell id="1ShHeoFMNw8JJS8lKLfo-14" style="edgeStyle=orthogonalEdgeStyle;rounded=0;orthogonalLoop=1;jettySize=auto;html=1;exitX=0.5;exitY=1;exitDx=0;exitDy=0;entryX=0.5;entryY=0;entryDx=0;entryDy=0;endArrow=none;endFill=0;fontFamily=Times New Roman;" edge="1" parent="1" source="1ShHeoFMNw8JJS8lKLfo-6" target="1ShHeoFMNw8JJS8lKLfo-7">
          <mxGeometry relative="1" as="geometry" />
        </mxCell>
        <mxCell id="1ShHeoFMNw8JJS8lKLfo-6" value="Имя открытого файла = имя выбранного файла" style="rounded=0;whiteSpace=wrap;html=1;fontFamily=Times New Roman;" vertex="1" parent="1">
          <mxGeometry x="680" y="480" width="120" height="80" as="geometry" />
        </mxCell>
        <mxCell id="1ShHeoFMNw8JJS8lKLfo-7" value="file_info(имя выбранного файла)" style="shape=process;whiteSpace=wrap;html=1;backgroundOutline=1;fontFamily=Times New Roman;" vertex="1" parent="1">
          <mxGeometry x="680" y="600" width="120" height="80" as="geometry" />
        </mxCell>
        <mxCell id="1ShHeoFMNw8JJS8lKLfo-8" value="Начало" style="html=1;dashed=0;whiteSpace=wrap;shape=mxgraph.dfd.start;fontFamily=Times New Roman;" vertex="1" parent="1">
          <mxGeometry x="680" y="720" width="120" height="40" as="geometry" />
        </mxCell>
        <mxCell id="1ShHeoFMNw8JJS8lKLfo-15" style="edgeStyle=orthogonalEdgeStyle;rounded=0;orthogonalLoop=1;jettySize=auto;html=1;exitX=0.5;exitY=1;exitDx=0;exitDy=0;entryX=0.5;entryY=0.5;entryDx=0;entryDy=-20;entryPerimeter=0;endArrow=none;endFill=0;fontFamily=Times New Roman;" edge="1" parent="1" source="1ShHeoFMNw8JJS8lKLfo-7" target="1ShHeoFMNw8JJS8lKLfo-8">
          <mxGeometry relative="1" as="geometry" />
        </mxCell>
      </root>
    </mxGraphModel>
  </diagram>
</mxfile>
